<svg xmlns="http://www.w3.org/2000/svg" viewBox="0 0 321.19 89.25"><defs><style>.cls-1{fill:#231f20;}</style></defs><title>文字 - 中英全称</title><g id="Layer_2" data-name="Layer 2"><g id="Layer_2-2" data-name="Layer 2"><path class="cls-1" d="M20.11,74.12v10H16.44v-.9H11.81v5.88H8.11V83.2H3.5v1H0V74.12H8.11V70.84h3.7v3.28Zm-12,6.34V76.87H3.5v3.59Zm8.33,0V76.87H11.81v3.59Z"/><path class="cls-1" d="M44.21,71.53V89H40.47V88.1H27.26V89H23.71V71.53Zm-3.74,14V74.08H27.26V85.52Zm-.51-3v2.24H27.84V82.57h4.42V80.82h-3.6V78.5h3.6V77.19h-4.2V74.77H39.62v2.42H35.47V78.5h3.68v2.32H38.5a12.08,12.08,0,0,1,1.25,1.33l-1,.42Zm-4.49,0H37c-.36-.42-.79-.88-1.18-1.27L37,80.82H35.47Z"/><path class="cls-1" d="M68.21,71.53V89H64.47V88.1H51.26V89H47.71V71.53Zm-3.74,14V74.08H51.26V85.52Zm-.51-3v2.24H51.84V82.57h4.42V80.82h-3.6V78.5h3.6V77.19h-4.2V74.77H63.62v2.42H59.47V78.5h3.68v2.32H62.5a12.08,12.08,0,0,1,1.25,1.33l-1,.42Zm-4.49,0H61c-.36-.42-.79-.88-1.18-1.27L61,80.82H59.47Z"/><path class="cls-1" d="M80.3,72.51c-.64,1.65-1.44,3.61-2.13,5.07a5.29,5.29,0,0,1,1.7,3.91A2.74,2.74,0,0,1,78.6,84.2a4.49,4.49,0,0,1-1.58.46,14.29,14.29,0,0,1-1.68.06,5,5,0,0,0-.7-2.21V89H71.33V71.59h5.93l.52-.1Zm-5.66,9.83a5.93,5.93,0,0,0,.82,0,1.46,1.46,0,0,0,.67-.14c.26-.15.38-.52.38-1A4.51,4.51,0,0,0,75,77.87c.4-1.08.86-2.58,1.2-3.81H74.64Zm9.29-1.15a20.09,20.09,0,0,1-3.07,6.22A20.53,20.53,0,0,0,78.14,86a14,14,0,0,0,2.67-5.38Zm4.2-2.13V86c0,1.3-.22,2.11-1.22,2.57a9.18,9.18,0,0,1-3.82.52,9.22,9.22,0,0,0-1-2.88c.79,0,1.75,0,2.06,0s.39-.06.39-.27V79.06H80.11v-2.6H93.22v2.6Zm3.77-4.59H81.24V71.88H91.9Zm-.58,6a23,23,0,0,1,2.31,6.13l-3.12.92a23.51,23.51,0,0,0-2-6.26Z"/><path class="cls-1" d="M115.11,73.68v8.6H111.5v-.86H100.63c-.31,2.72-1.13,5.75-3,7.83a14.45,14.45,0,0,0-3.1-1.71c2.43-2.67,2.62-6.64,2.62-9.39V73.68h7.7a22.84,22.84,0,0,0-1-2.26l3.5-.7a17,17,0,0,1,1.34,2.6l-1.6.36Zm-3.61,5.15V76.27H100.8v2.56Z"/><path class="cls-1" d="M129,73.47l2.52.57c-1.08,7.88-4.56,12.64-10.16,14.8a13.18,13.18,0,0,0-2.92-2.36,13.22,13.22,0,0,0,6.12-4c-.84-.61-1.88-1.3-2.64-1.84L124,78.67c.58.39,1.37.85,2.09,1.31a15.83,15.83,0,0,0,1.25-3.78h-3.07a17.74,17.74,0,0,1-3,4.77,24.22,24.22,0,0,0-2.9-1.76c2-1.9,3.38-5.11,4.08-8.39l3.5.5c-.19.75-.4,1.52-.64,2.25h3.07Zm9.72,9.44a38.32,38.32,0,0,0-3.17-3.26v9.44h-3.7V70.86h3.7v6.49l1.3-.75c1.44,1.34,3.76,3.24,4.87,4.43Z"/><path class="cls-1" d="M156.77,80H142.92V77.9h5.3c-.07-.13-.14-.27-.21-.38l1.85-.29h-5.93V71.51h12v3.4a14.72,14.72,0,0,0,5.26-3.76l3.31,1A21.43,21.43,0,0,1,158.16,77,12.86,12.86,0,0,0,156,75.18v2h-4.44a5.72,5.72,0,0,1,.41.67h4.85ZM154,84.6a18.39,18.39,0,0,1,1.85,3l-2.59,1a19.38,19.38,0,0,0-1.73-3.19v1.36c0,1.1-.19,1.65-1.1,2a9.26,9.26,0,0,1-3.19.34,7.93,7.93,0,0,0-.75-1.88,14.89,14.89,0,0,1-1.22,1.39,20.5,20.5,0,0,0-2.33-1.46,10.45,10.45,0,0,0,2-2.54h-.5V80.44h11.13V84.6Zm-6.14.56a16.08,16.08,0,0,1-1.13,1.75h1.08c.24,0,.31-.06.31-.23V84.6h-2.56Zm-.62-11.56h5.28v-.46h-5.28Zm0,2h5.28v-.46h-5.28Zm.4,7.26h4.54V82.2h-4.54Zm5.79,1.74h-1.9v.66Zm11.9-2a18.53,18.53,0,0,1-7.51,6.29,11.63,11.63,0,0,0-2.4-2.19,14.2,14.2,0,0,0,6.67-5Zm-.4-5.17a24,24,0,0,1-6.7,5,11.19,11.19,0,0,0-2.4-2,17.23,17.23,0,0,0,5.9-4.11Z"/><path class="cls-1" d="M188.76,81.53c-.67.29-1.37.58-2.06.85a7,7,0,0,0,3.05,3.55,10.1,10.1,0,0,0-2.14,2,8.52,8.52,0,0,1-3.41-4.7l-.6.19c.58,1.94.19,3.86-.67,4.68a3.35,3.35,0,0,1-2.57,1c-.41,0-.91,0-1.39,0a4.88,4.88,0,0,0-.67-2.2,27.25,27.25,0,0,1-3.58,1.32,10.9,10.9,0,0,0-2-1.92,24,24,0,0,0,7.71-3c-.05-.14-.12-.25-.17-.38A24.06,24.06,0,0,1,175,85.22a10.77,10.77,0,0,0-1.8-1.69,21.48,21.48,0,0,0,6-2.15,2.76,2.76,0,0,0-.24-.21,19.19,19.19,0,0,1-4.37,1.49A13.93,13.93,0,0,0,172.7,81a20,20,0,0,0,4.35-1.44h-2.47V77l-.36.23a9.68,9.68,0,0,0-1.83-1.59l0,.08V89.06H169V79.88c-.33.33-.67.65-1,.94a17.79,17.79,0,0,0-1.82-2.94,19.21,19.21,0,0,0,5-7l3.28.82A31.23,31.23,0,0,1,172.8,75a13.71,13.71,0,0,0,4.32-4.09l3.24.5c-.19.29-.38.56-.6.84h3.34l.62-.13,1.95,1.19c-.48.54-1,1.11-1.61,1.65h4v4.68h-6.81l-.29.27a7.72,7.72,0,0,1,1.8,1.81,32.62,32.62,0,0,0,3.74-1.85ZM178,74.22q-.33.34-.72.69h3.14c.22-.21.46-.44.7-.69Zm1.58,3.41a3.16,3.16,0,0,0,.44-.76h-2.41v.76Zm.94,8.74a1.58,1.58,0,0,0,.26-.79,23.52,23.52,0,0,1-2.23,1.19c.43,0,.79,0,1.11,0A.86.86,0,0,0,180.53,86.37Zm4.3-9.5h-2a2.9,2.9,0,0,1-.24.76h2.24Z"/><path class="cls-1" d="M207.84,81.69h4.85v2H197.88c0,.19,0,.38-.07.58h4.37s0,.51-.08.8c-.21,1.81-.48,2.77-1,3.21a2.74,2.74,0,0,1-1.64.57,23,23,0,0,1-2.52.06,4.22,4.22,0,0,0-.55-1.73,8.46,8.46,0,0,1-4.25,1.92,5.9,5.9,0,0,0-1.56-1.82,7.39,7.39,0,0,0,3-1.09h-2V84.28h3.15a4.09,4.09,0,0,0,.09-.58h-3.62v-2h5.23a2.51,2.51,0,0,0-.36-.64l2.11-.19h-4.68V76.75h16.85v4.11h-4.17l2,.21Zm5-9.87v2h-9.14v.51H211V76.2H193.08V74.31h7.06V73.8H191.3v-2h8.84v-1h3.53v1ZM197.16,86.2a4.09,4.09,0,0,1-.55.78,9.85,9.85,0,0,0,1.25,0,1,1,0,0,0,.64-.15,1.37,1.37,0,0,0,.32-.67Zm-.38-7.07H207v-.65H196.78Zm2.85,1.73a2.82,2.82,0,0,1,.51.83h4.1a7.57,7.57,0,0,0,.29-.83Zm3.22,3.26h8.86v4.94h-3.22v-.37h-2.57v.37h-3.07ZM205.92,86v.84h2.57V86Z"/><path class="cls-1" d="M237.15,85.14h-8v3.94h-3.6V85.14H214.87V82.45h3.72V78.13c-.29.27-.57.54-.86.77a23.65,23.65,0,0,0-3-1.82,14.33,14.33,0,0,0,4.85-6.32l3.57.73c-.19.44-.41.9-.65,1.35h13.23v2.68h-6.55v2h6v2.59h-6v2.38h8Zm-16.33-9.62a18.63,18.63,0,0,1-1.6,2h6.36v-2Zm4.76,6.93V80.07H222.1v2.38Z"/><path class="cls-1" d="M242.62,76.79c-.58.37-1.13.71-1.68,1a23.12,23.12,0,0,0-2.48-2.13A17.35,17.35,0,0,0,245,70.78l3.29.94a19.21,19.21,0,0,1-2.19,2.36v6.74h-3.45Zm9.26,6.07h9.22v2.68h-9.22v3.54h-3.72V85.54H239V82.86h9.12V80.78h3.72Zm-1.51-5.69c-.94.23-1.87.45-2.81.64a8.17,8.17,0,0,0-1.22-2.21c1.34-.29,2.71-.61,4-1V71.17h3.5v2.3a33.11,33.11,0,0,0,4.3-1.92l2.45,2.21a42.57,42.57,0,0,1-6.75,2.51v1c0,.75.15.83,1,.83h2.19c.74,0,.91-.31,1-1.85a11.78,11.78,0,0,0,3,1c-.33,2.48-1.25,3.21-3.72,3.21h-3.07c-3.17,0-4-.77-4-3.17Z"/><path class="cls-1" d="M14.88,4H10.15V14H4.73V4H0V.31H14.88Z"/><path class="cls-1" d="M32,.31V14H26.54V9H21.62v5H16.2V.31h5.42v4.8h4.92V.31Z"/><path class="cls-1" d="M39.31,4V5.38h7.95V9H39.31v1.29h8.6V14h-14V.31h14V4Z"/><path class="cls-1" d="M54.86.31h5.43V14H54.86Z"/><path class="cls-1" d="M78.24.31V14H72.6L69,9.12c-.6-.81-1.13-1.54-1.61-2.29.07,1.62.1,3.17.1,4.92V14H62.21V.31h5.64l3.53,4.85c.52.73,1.1,1.65,1.65,2.58C73,6,73,4.4,73,2.53V.31Z"/><path class="cls-1" d="M94.44,4H89.71V14H84.29V4H79.56V.31H94.44Z"/><path class="cls-1" d="M101.18,4V5.38h7.95V9h-7.95v1.29h8.6V14h-14V.31h14V4Z"/><path class="cls-1" d="M126.77,14h-5.55a2.81,2.81,0,0,1-.33-1.38l-.08-1.36c-.07-1.31-.57-1.71-2.18-1.71h-1.87V14h-5.43V.31h8.43c5.14,0,6.57,1.88,6.57,4a3.22,3.22,0,0,1-2.56,3.26,3.07,3.07,0,0,1,2.4,3l.19,2A2.33,2.33,0,0,0,126.77,14Zm-6-9c0-.94-.65-1.36-1.87-1.36h-2.16V6.37h2.16C120.14,6.37,120.79,6,120.79,5Z"/><path class="cls-1" d="M144.05.31V14h-5.64l-3.6-4.85c-.6-.81-1.13-1.54-1.61-2.29.07,1.62.09,3.17.09,4.92V14H128V.31h5.64l3.53,4.85c.53.73,1.11,1.65,1.66,2.58-.07-1.71-.07-3.34-.07-5.21V.31Z"/><path class="cls-1" d="M156.91,12.19h-6.14L150.09,14h-5.42L150.45.31h6.63L163.2,14h-5.62ZM155.71,9l-1.18-3.15c-.24-.67-.5-1.36-.72-2l-.72,2L151.92,9Z"/><path class="cls-1" d="M176.06,4h-4.73V14h-5.42V4h-4.73V.31h14.88Z"/><path class="cls-1" d="M177.38.31h5.43V14h-5.43Z"/><path class="cls-1" d="M184.22,7.14c0-4.38,3.72-7.14,9.05-7.14s9,2.76,9,7.14-3.72,7.16-9,7.16S184.22,11.54,184.22,7.14Zm12.48,0a3.43,3.43,0,1,0-6.86,0c0,2.46,1.41,3.48,3.43,3.48S196.7,9.6,196.7,7.14Z"/><path class="cls-1" d="M219.77.31V14h-5.64l-3.6-4.85c-.6-.81-1.13-1.54-1.61-2.29.07,1.62.09,3.17.09,4.92V14h-5.28V.31h5.64l3.53,4.85c.53.73,1.11,1.65,1.66,2.58-.07-1.71-.07-3.34-.07-5.21V.31Z"/><path class="cls-1" d="M232.63,12.19h-6.14L225.81,14h-5.42L226.17.31h6.63L238.92,14H233.3ZM231.43,9l-1.18-3.15c-.24-.67-.5-1.36-.72-2l-.72,2L227.64,9Z"/><path class="cls-1" d="M252.31,10.25V14H239.54V.31H245v9.94Z"/><path class="cls-1" d="M.1,29.14c0-4.38,3.72-7.14,9-7.14s9.05,2.76,9.05,7.14-3.72,7.16-9,7.16S.1,33.54.1,29.14Zm12.48,0a3.1,3.1,0,0,0-3.44-3.45,3.09,3.09,0,0,0-3.43,3.45c0,2.46,1.42,3.48,3.43,3.48S12.58,31.6,12.58,29.14Z"/><path class="cls-1" d="M19.37,31V22.31h5.42v8.52c0,1.08.6,1.79,2.4,1.79s2.4-.71,2.4-1.79V22.31H35V31c0,3.39-2.79,5.35-7.83,5.35S19.37,34.34,19.37,31Z"/><path class="cls-1" d="M50.86,26H46.13V36H40.7V26H36V22.31H50.86Z"/><path class="cls-1" d="M68.62,29.14c0,4.53-2.84,6.83-8.45,6.83h-8V22.31h8.07C65.81,22.31,68.62,24.61,68.62,29.14Zm-5.62,0c0-2.36-.86-3.22-3.1-3.22H57.6v6.45h2.3C62.14,32.37,63,31.5,63,29.14Z"/><path class="cls-1" d="M69.53,29.14c0-4.38,3.72-7.14,9-7.14s9,2.76,9,7.14-3.72,7.16-9,7.16S69.53,33.54,69.53,29.14Zm12.48,0a3.44,3.44,0,1,0-6.87,0c0,2.46,1.42,3.48,3.44,3.48S82,31.6,82,29.14Z"/><path class="cls-1" d="M88.54,29.14c0-4.38,3.72-7.14,9-7.14s9,2.76,9,7.14-3.72,7.16-9,7.16S88.54,33.54,88.54,29.14Zm12.48,0a3.44,3.44,0,1,0-6.87,0c0,2.46,1.42,3.48,3.43,3.48S101,31.6,101,29.14Z"/><path class="cls-1" d="M123.48,36h-5.54a2.7,2.7,0,0,1-.34-1.38l-.07-1.36c-.07-1.31-.58-1.71-2.19-1.71h-1.87V36h-5.42V22.31h8.42c5.14,0,6.58,1.88,6.58,4a3.23,3.23,0,0,1-2.57,3.26,3.06,3.06,0,0,1,2.4,3l.19,2A2.4,2.4,0,0,0,123.48,36Zm-6-9c0-.94-.64-1.36-1.87-1.36h-2.16v2.72h2.16C116.86,28.37,117.5,28,117.5,27Z"/><path class="cls-1" d="M146.57,29.14c0,4.53-2.83,6.83-8.45,6.83h-8V22.31h8.06C143.76,22.31,146.57,24.61,146.57,29.14Zm-5.62,0c0-2.36-.86-3.22-3.1-3.22h-2.3v6.45h2.3C140.09,32.37,141,31.5,141,29.14Z"/><path class="cls-1" d="M147.48,29.14c0-4.38,3.72-7.14,9.05-7.14s9.05,2.76,9.05,7.14-3.73,7.16-9.05,7.16S147.48,33.54,147.48,29.14Zm12.48,0a3.44,3.44,0,1,0-6.87,0c0,2.46,1.42,3.48,3.44,3.48S160,31.6,160,29.14Z"/><path class="cls-1" d="M166.49,29.12c0-4.36,3.52-7.12,9.16-7.12,5,0,7.83,2.21,8.6,5.55h-5.6c-.4-1.27-1.56-1.86-3.12-1.86-2.13,0-3.43,1-3.43,3.43s1.39,3.51,3.51,3.51c1.46,0,2.66-.53,3.07-1.84h5.54c-.69,3.21-4.13,5.53-8.88,5.53C170.13,36.32,166.49,33.52,166.49,29.12Z"/><path class="cls-1" d="M185.33,31V22.31h5.42v8.52c0,1.08.6,1.79,2.4,1.79s2.4-.71,2.4-1.79V22.31H201V31c0,3.39-2.78,5.35-7.82,5.35S185.33,34.34,185.33,31Z"/><path class="cls-1" d="M222.79,22.31V36h-5.28V32.1c0-1.86,0-3.5.12-5.22-.14.57-.31,1.17-.53,1.86L214.94,36h-4.41l-2.21-7.23c-.19-.66-.36-1.21-.51-1.75.1,1.69.12,3.28.12,5.11V36h-5.28V22.31H211l1.34,5.18c.14.54.26,1.08.41,1.63.12-.55.24-1.09.38-1.63l1.3-5.18Z"/><path class="cls-1" d="M230.13,26v1.35h8V31h-8v1.29h8.6V36h-14V22.31h14V26Z"/><path class="cls-1" d="M256.32,22.31V36h-5.64l-3.6-4.85c-.6-.81-1.13-1.54-1.61-2.29.07,1.62.09,3.17.09,4.92V36h-5.28V22.31h5.64l3.53,4.85c.53.73,1.11,1.65,1.66,2.58C251,28,251,26.4,251,24.53V22.31Z"/><path class="cls-1" d="M272.52,26h-4.73V36h-5.42V26h-4.73V22.31h14.88Z"/><path class="cls-1" d="M282.74,34.19H276.6L275.92,36H270.5l5.79-13.66h6.62L289,36h-5.62ZM281.54,31l-1.17-3.15c-.24-.67-.51-1.36-.72-2l-.72,2L277.75,31Z"/><path class="cls-1" d="M305.09,36h-5.55a2.81,2.81,0,0,1-.33-1.38l-.08-1.36c-.07-1.31-.57-1.71-2.18-1.71h-1.87V36h-5.43V22.31h8.43c5.13,0,6.57,1.88,6.57,4a3.22,3.22,0,0,1-2.56,3.26,3.07,3.07,0,0,1,2.4,3l.19,2A2.33,2.33,0,0,0,305.09,36Zm-6-9c0-.94-.65-1.36-1.87-1.36h-2.16v2.72h2.16C298.46,28.37,299.11,28,299.11,27Z"/><path class="cls-1" d="M321.19,22.31l-5.74,8.46V36H310v-5.2l-5.95-8.46h5.85L311,24c.67,1,1.25,2,1.77,2.93.48-1,1-1.9,1.59-2.93l1-1.73Z"/><path class="cls-1" d="M6,48v1.58h7.85V53.2H6V58H.6V44.31H14.23V48Z"/><path class="cls-1" d="M15.55,44.31H21V58H15.55Z"/><path class="cls-1" d="M35.67,54.25V58H22.9V44.31h5.42v9.94Z"/><path class="cls-1" d="M57.12,44.31V58H51.84V54.1c0-1.86,0-3.5.12-5.22-.14.57-.31,1.17-.53,1.86L49.27,58H44.86l-2.21-7.23c-.19-.66-.36-1.21-.51-1.75.1,1.69.12,3.28.12,5.11V58H37V44.31h8.36l1.34,5.18c.14.54.26,1.08.41,1.63.12-.55.24-1.09.38-1.63l1.3-5.18Z"/><path class="cls-1" d="M69.86,48v1.58h7.85V53.2H69.86V58H64.44V44.31H78.07V48Z"/><path class="cls-1" d="M84.82,48v1.35h7.94V53H84.82v1.29h8.59V58h-14V44.31h14V48Z"/><path class="cls-1" d="M94.41,53.48h5.36c.12,1.27,1.1,1.58,2.61,1.58s2.24-.31,2.24-.94-.58-.91-2.43-1.12l-2.06-.23c-3.1-.34-5.31-1.69-5.31-4.3,0-2.15,1.42-4.47,7.27-4.47,4.47,0,7.2,1.34,7.52,4.51h-5c-.12-.82-.67-1.3-2.3-1.3s-2.07.34-2.07.88.58.81,1.61.92l2.06.23c4.28.48,6.2,1.79,6.2,4.22,0,2.94-2.67,4.84-7.8,4.84S94.58,56.34,94.41,53.48Z"/><path class="cls-1" d="M125.13,48h-4.72V58H115V48h-4.73V44.31h14.88Z"/><path class="cls-1" d="M126.45,44.31h5.43V58h-5.43Z"/><path class="cls-1" d="M150.55,44.31,145,58h-6.62l-5.79-13.66h5.62l1.87,5c.5,1.36,1.1,3,1.66,4.64.52-1.69,1-3.28,1.56-4.64l1.8-5Z"/><path class="cls-1" d="M160.8,56.19h-6.15L154,58h-5.42l5.78-13.66H161L167.09,58h-5.62ZM159.6,53l-1.18-3.15c-.24-.67-.5-1.36-.72-2l-.72,2L155.81,53Z"/><path class="cls-1" d="M180.48,54.25V58H167.71V44.31h5.42v9.94Z"/><path class="cls-1" d="M186.69,51.14c0-4.38,3.72-7.14,9.05-7.14s9,2.76,9,7.14-3.72,7.16-9,7.16S186.69,55.54,186.69,51.14Zm12.48,0a3.43,3.43,0,1,0-6.86,0c0,2.46,1.42,3.48,3.43,3.48S199.17,53.6,199.17,51.14Z"/><path class="cls-1" d="M211.63,48v1.58h7.85V53.2h-7.85V58h-5.42V44.31h13.63V48Z"/><path class="cls-1" d="M226.05,51.12c0-4.36,3.53-7.12,9.17-7.12,5,0,7.83,2.21,8.59,5.55h-5.59c-.41-1.27-1.56-1.86-3.12-1.86-2.14,0-3.43,1.05-3.43,3.43a3.15,3.15,0,0,0,3.5,3.51c1.47,0,2.67-.53,3.08-1.84h5.54c-.7,3.21-4.13,5.53-8.88,5.53C229.7,58.32,226.05,55.52,226.05,51.12Z"/><path class="cls-1" d="M260.9,44.31V58h-5.42V53h-4.92v5h-5.43V44.31h5.43v4.8h4.92v-4.8Z"/><path class="cls-1" d="M262.82,44.31h5.43V58h-5.43Z"/><path class="cls-1" d="M286.2,44.31V58h-5.64L277,53.12c-.6-.81-1.13-1.54-1.61-2.29.07,1.62.09,3.17.09,4.92V58h-5.28V44.31h5.64l3.53,4.85c.53.73,1.11,1.65,1.66,2.58-.07-1.71-.07-3.34-.07-5.21V44.31Z"/><path class="cls-1" d="M299.06,56.19h-6.14L292.24,58h-5.42l5.78-13.66h6.63L305.35,58h-5.62ZM297.86,53l-1.18-3.15c-.23-.67-.5-1.36-.72-2l-.71,2L294.07,53Z"/></g></g></svg>