<svg xmlns="http://www.w3.org/2000/svg" viewBox="0 0 454.54 100"><defs><style>.cls-1{fill:#231f20;}</style></defs><title>完整 - 镂空 - 黑</title><g id="Layer_2" data-name="Layer 2"><g id="Layer_2-2" data-name="Layer 2"><path d="M0,0V100H235V0ZM18.43,95C10.46,95,5,91.11,5,85S10.5,75,18.43,75s13.49,3.86,13.49,10S26.37,95,18.43,95ZM57,87.49C57,92.24,52.83,95,45.32,95s-11.65-2.73-11.65-7.48V75.42h8.08V87.33c0,1.5.89,2.49,3.57,2.49s3.58-1,3.58-2.49V75.42H57Zm23.6-6.87h-7v13.9H65.46V80.62h-7v-5.2H80.58Zm13.88,13.9H82.55V75.42h12c8.3,0,12.48,3.22,12.48,9.55S102.83,94.52,94.46,94.52Zm27.42.45c-8,0-13.48-3.86-13.48-10s5.54-10,13.48-10,13.49,3.86,13.49,10S129.82,95,121.88,95Zm28.43-5.12c2.18,0,4-.75,4.58-2.57h8.26c-1,4.47-6.15,7.72-13.23,7.72-7.76,0-13.2-3.92-13.2-10.06S142,75,150.38,75c7.48,0,11.66,3.09,12.8,7.75h-8.33c-.61-1.77-2.32-2.6-4.65-2.6-3.18,0-5.11,1.48-5.11,4.8S147.16,89.85,150.31,89.85ZM175.88,95c-7.8,0-11.48-2.73-11.73-6.73h8c.18,1.77,1.65,2.2,3.9,2.2s3.33-.43,3.33-1.31-.86-1.26-3.62-1.56l-3.07-.32c-4.61-.48-7.9-2.36-7.9-6,0-3,2.11-6.25,10.83-6.25,6.65,0,10.73,1.88,11.19,6.3h-7.47c-.18-1.15-1-1.82-3.43-1.82-2.22,0-3.08.48-3.08,1.23s.86,1.13,2.4,1.29l3.07.32c6.37.67,9.23,2.5,9.23,5.9C187.5,92.32,183.53,95,175.88,95Z"/><path class="cls-1" d="M259,48.15v6.48h-2.39v-.58h-3v3.81h-2.4V54.05h-3v.65h-2.28V48.15h5.27V46h2.4v2.13Zm-7.8,4.11V49.93h-3v2.33Zm5.41,0V49.93h-3v2.33Z"/><path class="cls-1" d="M274.61,46.47V57.84h-2.43v-.61H263.6v.61h-2.3V46.47Zm-2.43,9.09V48.12H263.6v7.44Zm-.33-1.92v1.45H264V53.64h2.87V52.5h-2.34V51h2.34v-.85h-2.73V48.57h7.51v1.57h-2.69V51h2.38V52.5h-.42a7.61,7.61,0,0,1,.81.86l-.62.28Zm-2.91,0h1c-.23-.28-.51-.58-.76-.83l.75-.31h-1Z"/><path class="cls-1" d="M290.2,46.47V57.84h-2.43v-.61h-8.58v.61h-2.3V46.47Zm-2.43,9.09V48.12h-8.58v7.44Zm-.33-1.92v1.45h-7.87V53.64h2.87V52.5H280.1V51h2.34v-.85h-2.73V48.57h7.51v1.57h-2.69V51h2.38V52.5h-.42a7.61,7.61,0,0,1,.81.86l-.62.28Zm-2.91,0h1c-.23-.28-.51-.58-.76-.83l.75-.31h-1Z"/><path class="cls-1" d="M298.06,47.1c-.42,1.07-.94,2.35-1.39,3.29a3.44,3.44,0,0,1,1.11,2.55A1.79,1.79,0,0,1,297,54.7a2.89,2.89,0,0,1-1,.29,8.89,8.89,0,0,1-1.09,0,3.05,3.05,0,0,0-.45-1.43v4.22h-2.15V46.5h3.85l.34-.06Zm-3.68,6.39a4.93,4.93,0,0,0,.53,0,1,1,0,0,0,.44-.09c.17-.1.25-.34.25-.68a3,3,0,0,0-1-2.15c.26-.7.56-1.67.78-2.47h-1Zm6-.75a12.92,12.92,0,0,1-2,4,13.93,13.93,0,0,0-1.76-.92,9.2,9.2,0,0,0,1.73-3.5Zm2.73-1.39v4.49c0,.85-.14,1.37-.79,1.67a5.94,5.94,0,0,1-2.48.34,5.74,5.74,0,0,0-.63-1.87h1.34c.19,0,.25,0,.25-.17V51.35h-2.9V49.67h8.52v1.68Zm2.45-3h-6.92V46.69h6.92Zm-.37,3.93a15,15,0,0,1,1.49,4l-2,.6a15.13,15.13,0,0,0-1.33-4.07Z"/><path class="cls-1" d="M320.67,47.86v5.59h-2.34v-.56h-7.07a9.07,9.07,0,0,1-2,5.08,9.24,9.24,0,0,0-2-1.1c1.57-1.74,1.7-4.32,1.7-6.1V47.86h5a16.07,16.07,0,0,0-.68-1.47l2.27-.45a12,12,0,0,1,.88,1.69l-1,.23Zm-2.34,3.34V49.55h-7V51.2Z"/><path class="cls-1" d="M329.68,47.73l1.63.37c-.7,5.11-3,8.2-6.59,9.61a8.73,8.73,0,0,0-1.9-1.53,8.6,8.6,0,0,0,4-2.63c-.54-.4-1.21-.85-1.71-1.2l1.35-1.25c.38.25.89.55,1.36.85a10.07,10.07,0,0,0,.81-2.45h-2a11.51,11.51,0,0,1-2,3.1,16,16,0,0,0-1.89-1.15A10.64,10.64,0,0,0,325.4,46l2.28.33c-.12.48-.27,1-.42,1.46h2ZM336,53.86a24.29,24.29,0,0,0-2.06-2.12v6.14h-2.4V46h2.4v4.21l.84-.48c.94.87,2.45,2.11,3.17,2.88Z"/><path class="cls-1" d="M347.73,52h-9V50.61h3.45a2.8,2.8,0,0,0-.14-.25l1.2-.19h-3.85V46.45h7.81v2.21a9.59,9.59,0,0,0,3.41-2.44l2.16.68A13.94,13.94,0,0,1,348.63,50a8.53,8.53,0,0,0-1.43-1.16v1.34h-2.89a4,4,0,0,1,.27.44h3.15Zm-1.81,3a12.61,12.61,0,0,1,1.2,1.95l-1.68.63a12.81,12.81,0,0,0-1.13-2.07v.88c0,.71-.12,1.08-.71,1.3a6.12,6.12,0,0,1-2.08.23,4.82,4.82,0,0,0-.48-1.23,9.37,9.37,0,0,1-.79.9,17.13,17.13,0,0,0-1.52-.95A6.44,6.44,0,0,0,340,55h-.33V52.25h7.23V55Zm-4,.36a9.77,9.77,0,0,1-.73,1.13h.7c.15,0,.2,0,.2-.15V55h-1.67Zm-.41-7.51H345v-.3h-3.43Zm0,1.3H345v-.3h-3.43Zm.27,4.71h2.95V53.4h-2.95ZM345.55,55h-1.24v.42Zm7.73-1.3a12,12,0,0,1-4.88,4.09,7.19,7.19,0,0,0-1.56-1.42,9.24,9.24,0,0,0,4.33-3.28ZM353,50.31a15.92,15.92,0,0,1-4.36,3.25,7.22,7.22,0,0,0-1.55-1.27,11.15,11.15,0,0,0,3.83-2.67Z"/><path class="cls-1" d="M368.51,53c-.43.19-.89.38-1.34.55a4.53,4.53,0,0,0,2,2.31,6.72,6.72,0,0,0-1.39,1.32,5.6,5.6,0,0,1-2.21-3.06l-.39.13a3.2,3.2,0,0,1-.44,3,2.23,2.23,0,0,1-1.67.63h-.9a3.1,3.1,0,0,0-.44-1.44,16.76,16.76,0,0,1-2.32.86,7.24,7.24,0,0,0-1.28-1.25,15.51,15.51,0,0,0,5-2c0-.08-.08-.16-.11-.25a15.66,15.66,0,0,1-3.46,1.53,7.22,7.22,0,0,0-1.17-1.1,14.24,14.24,0,0,0,3.9-1.4l-.16-.13a12.75,12.75,0,0,1-2.84,1,8,8,0,0,0-1.2-1.06,13.16,13.16,0,0,0,2.82-.94h-1.6V50l-.24.15a6.06,6.06,0,0,0-1.18-1l0,0v8.69H355.7v-6c-.22.21-.44.42-.66.61a11.63,11.63,0,0,0-1.18-1.91,12.4,12.4,0,0,0,3.25-4.52l2.14.53a19.11,19.11,0,0,1-1.11,2.08A8.82,8.82,0,0,0,361,46l2.1.32c-.12.19-.25.37-.39.55h2.17l.41-.09,1.26.78c-.31.35-.67.72-1,1.07H368v3h-4.42a1.62,1.62,0,0,0-.19.18,5.19,5.19,0,0,1,1.17,1.17,19.67,19.67,0,0,0,2.43-1.2Zm-7-4.75c-.14.15-.3.3-.47.45h2l.45-.45Zm1,2.22a2.83,2.83,0,0,0,.28-.5h-1.56v.5Zm.6,5.67a1.14,1.14,0,0,0,.18-.51c-.46.28-1,.54-1.46.78l.72,0A.55.55,0,0,0,363.16,56.1ZM366,49.93h-1.29a2.07,2.07,0,0,1-.16.5H366Z"/><path class="cls-1" d="M380.91,53.06h3.14v1.31h-9.61c0,.13,0,.25-.05.38h2.84s0,.33-.05.52c-.14,1.17-.31,1.79-.66,2.08a1.8,1.8,0,0,1-1.06.38,15.81,15.81,0,0,1-1.63,0,2.83,2.83,0,0,0-.36-1.12,5.51,5.51,0,0,1-2.76,1.25,4,4,0,0,0-1-1.19,4.77,4.77,0,0,0,2-.71H370.4V54.75h2a2.5,2.5,0,0,0,.06-.38h-2.35V53.06h3.4a2.1,2.1,0,0,0-.24-.41l1.37-.12h-3V49.86h10.95v2.67h-2.71l1.32.13Zm3.22-6.41v1.29h-5.94v.33H383V49.5H371.32V48.27h4.58v-.33h-5.74V46.65h5.74V46h2.29v.62ZM374,56a2.61,2.61,0,0,1-.36.51,6.35,6.35,0,0,0,.81,0,.61.61,0,0,0,.42-.1A.81.81,0,0,0,375,56Zm-.25-4.59h6.66V51h-6.66Zm1.85,1.13a1.79,1.79,0,0,1,.33.53h2.67a5.56,5.56,0,0,0,.18-.53Zm2.09,2.12h5.76v3.2h-2.09v-.24h-1.67v.24h-2Zm2,1.21v.54h1.67v-.54Z"/><path class="cls-1" d="M399.94,55.31h-5.18v2.55h-2.33V55.31h-7V53.56h2.42V50.75c-.19.18-.37.35-.56.5a16.81,16.81,0,0,0-1.95-1.18,9.38,9.38,0,0,0,3.15-4.1l2.32.47a7.71,7.71,0,0,1-.42.87H399v1.75h-4.26v1.27h3.89V52h-3.89v1.55h5.18Zm-10.6-6.25a13.37,13.37,0,0,1-1,1.27h4.14V49.06Zm3.09,4.5V52h-2.26v1.55Z"/><path class="cls-1" d="M403.49,49.88c-.37.24-.73.46-1.09.65a13.84,13.84,0,0,0-1.6-1.38A11.25,11.25,0,0,0,405,46l2.14.61a12.63,12.63,0,0,1-1.42,1.53V52.5h-2.25Zm6,3.94h6v1.75h-6v2.29H407.1V55.57h-5.93V53.82h5.93V52.48h2.41Zm-1-3.69c-.61.15-1.22.29-1.82.41a5.21,5.21,0,0,0-.8-1.43c.87-.19,1.76-.4,2.62-.65V46.23h2.28v1.5a23.11,23.11,0,0,0,2.79-1.25l1.59,1.43a28.74,28.74,0,0,1-4.38,1.64v.63c0,.49.09.54.65.54h1.42c.48,0,.59-.2.67-1.2a7.86,7.86,0,0,0,2,.65c-.22,1.61-.81,2.08-2.42,2.08h-2c-2.05,0-2.57-.5-2.57-2.06Z"/><path class="cls-1" d="M255.56,2.62h-3.07V9.08H249V2.62h-3.08V.2h9.67Z"/><path class="cls-1" d="M266.66.2V9.08h-3.52V5.81h-3.2V9.08h-3.52V.2h3.52V3.32h3.2V.2Z"/><path class="cls-1" d="M271.43,2.62v.87h5.16V5.82h-5.16v.84H277V9.08h-9.1V.2H277V2.62Z"/><path class="cls-1" d="M281.53.2h3.53V9.08h-3.53Z"/><path class="cls-1" d="M296.72.2V9.08h-3.67l-2.33-3.16c-.39-.52-.74-1-1.05-1.48.05,1,.06,2.06.06,3.19V9.08H286.3V.2H290l2.29,3.15c.34.48.72,1.08,1.07,1.68,0-1.11,0-2.17,0-3.38V.2Z"/><path class="cls-1" d="M307.24,2.62h-3.07V9.08h-3.52V2.62h-3.08V.2h9.67Z"/><path class="cls-1" d="M311.62,2.62v.87h5.16V5.82h-5.16v.84h5.58V9.08h-9.1V.2h9.1V2.62Z"/><path class="cls-1" d="M328.24,9.08h-3.6a1.89,1.89,0,0,1-.22-.9l-.05-.89c0-.84-.37-1.1-1.41-1.1h-1.22V9.08h-3.52V.2h5.47C327,.2,328,1.42,328,2.81a2.1,2.1,0,0,1-1.67,2.12,2,2,0,0,1,1.56,1.94L328,8.18A1.55,1.55,0,0,0,328.24,9.08Zm-3.88-5.83c0-.61-.42-.88-1.22-.88h-1.4V4.14h1.4C323.94,4.14,324.36,3.87,324.36,3.25Z"/><path class="cls-1" d="M339.47.2V9.08H335.8l-2.34-3.16c-.39-.52-.73-1-1-1.48.05,1,.06,2.06.06,3.19V9.08h-3.43V.2h3.66L335,3.35c.34.48.71,1.08,1.07,1.68,0-1.11,0-2.17,0-3.38V.2Z"/><path class="cls-1" d="M347.82,7.92h-4l-.44,1.16h-3.52L343.63.2h4.3l4,8.88h-3.65ZM347,5.86l-.76-2c-.16-.44-.33-.89-.47-1.33l-.47,1.33-.76,2Z"/><path class="cls-1" d="M360.26,2.62h-3.07V9.08h-3.52V2.62H350.6V.2h9.66Z"/><path class="cls-1" d="M361.12.2h3.52V9.08h-3.52Z"/><path class="cls-1" d="M365.56,4.64C365.56,1.8,368,0,371.44,0s5.88,1.8,5.88,4.64-2.42,4.65-5.88,4.65S365.56,7.49,365.56,4.64Zm8.11,0a2.23,2.23,0,1,0-4.46,0,2.23,2.23,0,1,0,4.46,0Z"/><path class="cls-1" d="M388.65.2V9.08H385l-2.34-3.16c-.39-.52-.73-1-1-1.48,0,1,.07,2.06.07,3.19V9.08h-3.43V.2h3.66l2.29,3.15c.35.48.72,1.08,1.08,1.68,0-1.11,0-2.17,0-3.38V.2Z"/><path class="cls-1" d="M397,7.92h-4l-.44,1.16h-3.52L392.81.2h4.31l4,8.88h-3.65Zm-.78-2.06-.77-2c-.15-.44-.32-.89-.46-1.33l-.47,1.33-.77,2Z"/><path class="cls-1" d="M409.79,6.66V9.08H401.5V.2H405V6.66Z"/><path class="cls-1" d="M246,18.93c0-2.84,2.41-4.64,5.87-4.64s5.88,1.8,5.88,4.64-2.41,4.65-5.88,4.65S246,21.79,246,18.93Zm8.1,0a2.23,2.23,0,1,0-4.46,0,2.23,2.23,0,1,0,4.46,0Z"/><path class="cls-1" d="M258.47,20.1V14.49H262V20c0,.7.39,1.16,1.56,1.16s1.56-.46,1.56-1.16V14.49h3.52V20.1c0,2.21-1.81,3.48-5.08,3.48S258.47,22.31,258.47,20.1Z"/><path class="cls-1" d="M278.93,16.91h-3.07v6.46h-3.53V16.91h-3.07V14.49h9.67Z"/><path class="cls-1" d="M290.47,18.93c0,2.94-1.84,4.44-5.49,4.44h-5.19V14.49H285C288.64,14.49,290.47,16,290.47,18.93Zm-3.65,0c0-1.53-.56-2.1-2-2.1h-1.5V21h1.5C286.26,21,286.82,20.46,286.82,18.93Z"/><path class="cls-1" d="M291.06,18.93c0-2.84,2.42-4.64,5.88-4.64s5.87,1.8,5.87,4.64-2.41,4.65-5.87,4.65S291.06,21.79,291.06,18.93Zm8.11,0a2.23,2.23,0,1,0-4.46,0,2.23,2.23,0,1,0,4.46,0Z"/><path class="cls-1" d="M303.41,18.93c0-2.84,2.41-4.64,5.87-4.64s5.88,1.8,5.88,4.64-2.42,4.65-5.88,4.65S303.41,21.79,303.41,18.93Zm8.1,0a2.23,2.23,0,1,0-4.46,0,2.23,2.23,0,1,0,4.46,0Z"/><path class="cls-1" d="M326.11,23.37H322.5a1.79,1.79,0,0,1-.21-.9l-.05-.88c-.05-.85-.38-1.11-1.42-1.11H319.6v2.89h-3.52V14.49h5.47c3.34,0,4.27,1.22,4.27,2.61a2.1,2.1,0,0,1-1.66,2.12,2,2,0,0,1,1.56,1.94l.12,1.31A1.55,1.55,0,0,0,326.11,23.37Zm-3.89-5.82c0-.62-.42-.89-1.21-.89H319.6v1.77H321C321.8,18.43,322.22,18.16,322.22,17.55Z"/><path class="cls-1" d="M341.1,18.93c0,2.94-1.84,4.44-5.49,4.44h-5.19V14.49h5.24C339.28,14.49,341.1,16,341.1,18.93Zm-3.65,0c0-1.53-.56-2.1-2-2.1H334V21h1.49C336.89,21,337.45,20.46,337.45,18.93Z"/><path class="cls-1" d="M341.69,18.93c0-2.84,2.42-4.64,5.88-4.64s5.88,1.8,5.88,4.64-2.42,4.65-5.88,4.65S341.69,21.79,341.69,18.93Zm8.11,0a2.23,2.23,0,1,0-4.46,0,2.23,2.23,0,1,0,4.46,0Z"/><path class="cls-1" d="M354,18.92c0-2.83,2.29-4.63,6-4.63,3.26,0,5.08,1.44,5.58,3.6H362a1.91,1.91,0,0,0-2-1.2,2,2,0,0,0-2.23,2.23A2,2,0,0,0,360,21.2a1.86,1.86,0,0,0,2-1.2h3.6c-.45,2.08-2.68,3.59-5.77,3.59C356.41,23.59,354,21.77,354,18.92Z"/><path class="cls-1" d="M366.28,20.1V14.49h3.52V20c0,.7.39,1.16,1.56,1.16s1.56-.46,1.56-1.16V14.49h3.52V20.1c0,2.21-1.8,3.48-5.08,3.48S366.28,22.31,366.28,20.1Z"/><path class="cls-1" d="M390.62,14.49v8.88h-3.43V20.85c0-1.21,0-2.27.07-3.39-.09.37-.2.76-.34,1.21l-1.4,4.7h-2.87l-1.43-4.7c-.13-.43-.24-.79-.33-1.14.06,1.1.08,2.14.08,3.32v2.52h-3.43V14.49H383l.87,3.37c.1.35.18.7.27,1.06.08-.36.16-.71.25-1.06l.84-3.37Z"/><path class="cls-1" d="M395.39,16.91v.87h5.16v2.33h-5.16V21H401v2.42h-9.11V14.49H401v2.42Z"/><path class="cls-1" d="M412.39,14.49v8.88h-3.66l-2.34-3.16c-.39-.52-.73-1-1-1.48,0,1.05.06,2.06.06,3.19v1.45H402V14.49h3.66l2.3,3.16c.34.47.71,1.07,1.07,1.67-.05-1.11-.05-2.17-.05-3.38V14.49Z"/><path class="cls-1" d="M422.92,16.91h-3.07v6.46h-3.53V16.91h-3.07V14.49h9.67Z"/><path class="cls-1" d="M429.56,22.21h-4l-.44,1.16h-3.52l3.76-8.88h4.3l4,8.88H430Zm-.78-2.06-.76-2c-.16-.44-.33-.89-.47-1.33l-.47,1.33-.76,2Z"/><path class="cls-1" d="M444.07,23.37h-3.6a1.89,1.89,0,0,1-.22-.9l0-.88c0-.85-.38-1.11-1.42-1.11h-1.22v2.89h-3.52V14.49h5.47c3.34,0,4.27,1.22,4.27,2.61a2.1,2.1,0,0,1-1.66,2.12,2,2,0,0,1,1.55,1.94l.13,1.31A1.63,1.63,0,0,0,444.07,23.37Zm-3.88-5.82c0-.62-.42-.89-1.21-.89h-1.41v1.77H439C439.77,18.43,440.19,18.16,440.19,17.55Z"/><path class="cls-1" d="M454.54,14.49,450.81,20v3.38h-3.52V20l-3.87-5.5h3.8l.72,1.12c.44.68.81,1.29,1.15,1.91.32-.62.64-1.23,1-1.91l.66-1.12Z"/><path class="cls-1" d="M249.81,31.2v1h5.1v2.34h-5.1v3.1h-3.53V28.78h8.86V31.2Z"/><path class="cls-1" d="M256,28.78h3.52v8.88H256Z"/><path class="cls-1" d="M269.06,35.24v2.42h-8.29V28.78h3.52v6.46Z"/><path class="cls-1" d="M283,28.78v8.88h-3.43V35.14c0-1.21,0-2.27.08-3.39-.1.37-.21.76-.35,1.21l-1.4,4.7H275L273.6,33c-.13-.43-.24-.79-.33-1.14.06,1.1.08,2.14.08,3.32v2.52h-3.43V28.78h5.42l.88,3.37c.09.35.17.7.26,1.06.08-.36.16-.71.25-1.06l.84-3.37Z"/><path class="cls-1" d="M291.28,31.2v1h5.09v2.34h-5.09v3.1h-3.53V28.78h8.86V31.2Z"/><path class="cls-1" d="M301,31.2v.87h5.16v2.34H301v.83h5.58v2.42h-9.1V28.78h9.1V31.2Z"/><path class="cls-1" d="M307.22,34.74h3.48c.08.83.72,1,1.7,1s1.45-.19,1.45-.61-.37-.58-1.57-.72l-1.34-.15c-2-.22-3.45-1.1-3.45-2.79,0-1.4.92-2.91,4.72-2.91,2.9,0,4.68.87,4.88,2.93h-3.26c-.07-.53-.43-.85-1.49-.85s-1.34.23-1.34.58.37.52,1,.6l1.34.15c2.78.31,4,1.16,4,2.74,0,1.91-1.74,3.14-5.07,3.14S307.33,36.6,307.22,34.74Z"/><path class="cls-1" d="M327.18,31.2h-3.07v6.46h-3.52V31.2h-3.08V28.78h9.67Z"/><path class="cls-1" d="M328,28.78h3.52v8.88H328Z"/><path class="cls-1" d="M343.69,28.78l-3.59,8.88h-4.3L332,28.78h3.65l1.22,3.28c.33.89.72,1.92,1.07,3,.35-1.1.69-2.13,1-3l1.17-3.28Z"/><path class="cls-1" d="M350.35,36.5h-4l-.44,1.16H342.4l3.75-8.88h4.31l4,8.88h-3.65Zm-.78-2.06-.77-2c-.15-.44-.32-.89-.46-1.32l-.47,1.32-.77,2Z"/><path class="cls-1" d="M363.13,35.24v2.42h-8.29V28.78h3.52v6.46Z"/><path class="cls-1" d="M367.17,33.22c0-2.84,2.41-4.64,5.88-4.64s5.87,1.8,5.87,4.64-2.41,4.65-5.87,4.65S367.17,36.08,367.17,33.22Zm8.11,0a2.23,2.23,0,1,0-4.46,0,2.23,2.23,0,1,0,4.46,0Z"/><path class="cls-1" d="M383.37,31.2v1h5.09v2.34h-5.09v3.1h-3.53V28.78h8.86V31.2Z"/><path class="cls-1" d="M392.74,33.21c0-2.83,2.29-4.63,5.95-4.63,3.26,0,5.08,1.44,5.58,3.61h-3.63a1.89,1.89,0,0,0-2-1.21,2,2,0,0,0-2.23,2.23,2.05,2.05,0,0,0,2.28,2.28,1.88,1.88,0,0,0,2-1.2h3.6c-.45,2.09-2.68,3.59-5.77,3.59C395.11,37.88,392.74,36.06,392.74,33.21Z"/><path class="cls-1" d="M415.37,28.78v8.88h-3.52V34.39h-3.2v3.27h-3.52V28.78h3.52V31.9h3.2V28.78Z"/><path class="cls-1" d="M416.62,28.78h3.52v8.88h-3.52Z"/><path class="cls-1" d="M431.8,28.78v8.88h-3.66l-2.34-3.15c-.39-.53-.73-1-1-1.49,0,1,.06,2.06.06,3.19v1.45h-3.43V28.78h3.66l2.3,3.16c.34.47.71,1.07,1.07,1.67-.05-1.11-.05-2.17-.05-3.38V28.78Z"/><path class="cls-1" d="M440.16,36.5h-4l-.44,1.16h-3.52L436,28.78h4.3l4,8.88H440.6Zm-.78-2.06-.76-2c-.16-.44-.33-.89-.47-1.32l-.47,1.32-.76,2Z"/></g></g></svg>